<svg xmlns="http://www.w3.org/2000/svg" width="50" height="50" fill="none"><mask id="a" fill="#fff"><path d="M9.42.324C7.578 1.384 1.963 7.868.355 10.792c-.38.681-.39.748-.323 1.463.245 2.388 1.306 5.814 2.768 8.95 1.619 3.449 4.354 7.579 7.457 11.273 1.586 1.886 5.303 5.602 7.145 7.165 6.676 5.625 13.408 9.152 19.47 10.19.547.089 1.138.167 1.328.167.636 0 2.4-1.138 5.068-3.259 3.439-2.745 6.151-5.424 6.61-6.54.379-.904-.358-1.741-3.026-3.516-3.874-2.556-7.48-4.587-9.188-5.156-.792-.268-.86-.279-1.25-.112-.547.224-.893.57-2.434 2.344a56.866 56.866 0 0 1-1.752 1.931l-.503.48-.714-.179c-2.322-.602-5.47-2.243-8.083-4.218-1.15-.882-3.092-2.757-4.164-4.04-2.032-2.422-3.952-5.905-4.722-8.572l-.246-.87.603-.614c.335-.346 1.161-1.094 1.831-1.663 1.563-1.317 2.121-1.909 2.333-2.422.168-.38.157-.469-.056-1.139-.625-2.03-5.19-9.72-6.843-11.529C10.749-.078 10.324-.2 9.42.324Z"/></mask><path fill="#FFDD87" d="M9.42.324C7.578 1.384 1.963 7.868.355 10.792c-.38.681-.39.748-.323 1.463.245 2.388 1.306 5.814 2.768 8.95 1.619 3.449 4.354 7.579 7.457 11.273 1.586 1.886 5.303 5.602 7.145 7.165 6.676 5.625 13.408 9.152 19.47 10.19.547.089 1.138.167 1.328.167.636 0 2.4-1.138 5.068-3.259 3.439-2.745 6.151-5.424 6.61-6.54.379-.904-.358-1.741-3.026-3.516-3.874-2.556-7.48-4.587-9.188-5.156-.792-.268-.86-.279-1.25-.112-.547.224-.893.57-2.434 2.344a56.866 56.866 0 0 1-1.752 1.931l-.503.48-.714-.179c-2.322-.602-5.47-2.243-8.083-4.218-1.15-.882-3.092-2.757-4.164-4.04-2.032-2.422-3.952-5.905-4.722-8.572l-.246-.87.603-.614c.335-.346 1.161-1.094 1.831-1.663 1.563-1.317 2.121-1.909 2.333-2.422.168-.38.157-.469-.056-1.139-.625-2.03-5.19-9.72-6.843-11.529C10.749-.078 10.324-.2 9.42.324Z"/><path fill="#996E00" d="m9.42.324 1.004 1.73-.006.003L9.42.324ZM.355 10.792l1.753.964-.006.01-1.747-.974Zm-.323 1.463-1.99.204v-.009l-.002-.009 1.992-.187Zm2.768 8.95-1.81.85-.003-.004 1.813-.846Zm7.457 11.273-1.53 1.286 1.53-1.286Zm7.145 7.165-1.289 1.53-.005-.005 1.294-1.525Zm19.47 10.19-.323 1.974-.007-.002-.008-.001.338-1.971Zm6.396-3.092 1.248 1.563-.003.003-1.245-1.566Zm6.61-6.54-1.851-.759.003-.008.003-.007 1.844.774Zm-3.026-3.516 1.101-1.67.006.005-1.107 1.665Zm-9.188-5.156-.632 1.897-.008-.002.64-1.895Zm-1.25-.112.788 1.839-.017.007-.016.006-.755-1.852Zm-2.434 2.344 1.51 1.311-.004.005-1.506-1.316Zm-1.752 1.931 1.413 1.414-.016.016-.016.016-1.382-1.446Zm-.503.48 1.382 1.446-.797.761-1.07-.267.485-1.94Zm-.714-.179-.485 1.94-.01-.002-.008-.002.503-1.936Zm-8.083-4.218-1.206 1.595-.01-.008 1.216-1.587Zm-4.164-4.04 1.532-1.286.003.003-1.535 1.282Zm-4.722-8.572-1.922.555-.003-.012 1.925-.543Zm-.246-.87-1.925.543-.315-1.117.813-.828 1.427 1.401Zm.603-.614 1.437 1.39-.005.006-.005.005-1.427-1.401Zm1.831-1.663-1.295-1.524.006-.006 1.289 1.53Zm2.333-2.422-1.848-.764.009-.022.01-.022 1.83.808Zm-.056-1.139-1.906.604-.003-.007-.002-.008 1.911-.589ZM11.664.926l-1.476 1.35-.002-.002L11.664.926Zm-1.246 1.131c-.21.12-.74.55-1.558 1.36a50.752 50.752 0 0 0-2.548 2.751c-1.822 2.104-3.509 4.323-4.204 5.588l-3.505-1.927c.912-1.659 2.837-4.145 4.685-6.28A54.695 54.695 0 0 1 6.045.575C6.85-.222 7.711-1 8.422-1.41l1.996 3.467Zm-8.316 9.71a12.56 12.56 0 0 0-.158.294c-.013.028.014-.025.036-.122.022-.102.02-.17.02-.16a11.346 11.346 0 0 0 .023.289l-3.983.373c-.026-.285-.089-.806.032-1.358.117-.534.382-.987.536-1.264l3.494 1.947Zm-.081.283c.215 2.091 1.185 5.294 2.592 8.31L.987 22.05c-1.518-3.256-2.669-6.906-2.945-9.591l3.979-.41Zm2.59 8.306c1.528 3.255 4.157 7.24 7.178 10.835l-3.063 2.573C5.54 29.972 2.7 25.697.99 22.055l3.62-1.7Zm7.178 10.835c1.51 1.797 5.148 5.434 6.907 6.927l-2.588 3.05c-1.924-1.633-5.722-5.429-7.382-7.404l3.063-2.573Zm6.902 6.922c6.512 5.488 12.925 8.79 18.518 9.748l-.675 3.943c-6.53-1.118-13.581-4.87-20.42-10.632l2.577-3.059Zm18.503 9.746a22.253 22.253 0 0 0 .987.137c.08.007.073.004.019.004v4c-.386 0-1.154-.112-1.65-.194l.644-3.947ZM38.2 48c-.313 0-.427.102-.168-.02.187-.088.469-.245.858-.496.773-.498 1.823-1.266 3.134-2.309l2.489 3.132c-1.357 1.078-2.524 1.94-3.458 2.54-.465.3-.91.56-1.317.75-.334.159-.907.403-1.538.403v-4Zm3.82-2.822c1.677-1.339 3.16-2.648 4.264-3.74a19.78 19.78 0 0 0 1.309-1.404c.35-.423.44-.607.434-.592l3.7 1.518c-.234.573-.655 1.142-1.05 1.621-.429.52-.968 1.096-1.58 1.701-1.226 1.213-2.82 2.616-4.58 4.022l-2.497-3.126Zm6.013-5.751a.955.955 0 0 0-.035.57c.044.182.113.215-.004.08-.27-.312-.903-.831-2.25-1.726l2.215-3.331c1.322.88 2.39 1.666 3.061 2.442.354.409.702.931.862 1.58.172.7.08 1.361-.16 1.933l-3.689-1.548Zm-2.283-1.072c-3.891-2.568-7.293-4.454-8.718-4.929l1.265-3.794c1.99.663 5.8 2.84 9.656 5.384l-2.203 3.339Zm-8.726-4.931a29.672 29.672 0 0 0-.394-.129l-.033-.009c.01.002.048.01.106.015a1.325 1.325 0 0 0 .442-.034c.057-.014.094-.027.1-.03.005-.001-.004.002-.043.019l-1.576-3.677c.242-.104.752-.325 1.448-.26.455.042.935.216 1.23.315l-1.28 3.79Zm.145-.155-.018.008c.003-.002.004-.002 0 0a1.679 1.679 0 0 0-.19.168c-.273.263-.684.721-1.47 1.627L32.47 32.45c1.4-1.614 2.093-2.438 3.188-2.884l1.511 3.703Zm-1.682 1.808c-.692.792-1.525 1.709-1.846 2.03l-2.828-2.83c.215-.214.968-1.038 1.66-1.831l3.014 2.63Zm-1.878 2.061-.502.48-2.763-2.892.502-.48 2.763 2.892Zm-2.369.974-.714-.178.97-3.881.714.179-.97 3.88Zm-.732-.183c-2.65-.688-6.034-2.478-8.786-4.56l2.412-3.19c2.473 1.87 5.385 3.36 7.38 3.878l-1.006 3.872Zm-8.797-4.567c-1.277-.98-3.324-2.96-4.482-4.346l3.07-2.563c.986 1.18 2.823 2.95 3.846 3.734l-2.434 3.175Zm-4.48-4.342c-2.185-2.605-4.253-6.331-5.11-9.302l3.842-1.11c.683 2.364 2.455 5.602 4.333 7.841l-3.064 2.57Zm-5.114-9.314-.246-.87 3.85-1.087.246.87-3.85 1.087Zm.252-2.815.603-.614 2.854 2.803-.603.614-2.854-2.803Zm.593-.603c.405-.419 1.292-1.218 1.973-1.796l2.59 3.048c-.659.56-1.424 1.256-1.689 1.53l-2.874-2.782Zm1.98-1.802c.772-.65 1.234-1.071 1.518-1.367.284-.296.285-.362.255-.289l3.697 1.527c-.243.587-.627 1.073-1.066 1.531-.439.457-1.037.991-1.827 1.657l-2.578-3.059Zm1.791-1.7.016-.036c-.002.006-.014.037-.027.086a1.3 1.3 0 0 0-.041.406c.006.114.026.174.013.125a14.724 14.724 0 0 0-.093-.307l3.813-1.209c.08.25.235.711.26 1.173a2.899 2.899 0 0 1-.281 1.377l-3.66-1.615Zm-.137.258c-.095-.31-.414-1.02-.961-2.065a74.604 74.604 0 0 0-1.884-3.35c-1.443-2.432-2.899-4.626-3.563-5.353L13.14-.423c.988 1.08 2.641 3.636 4.05 6.01a78.604 78.604 0 0 1 1.988 3.537c.537 1.024 1.023 2.037 1.24 2.743l-3.822 1.177Zm-6.41-10.77a5.995 5.995 0 0 0-.24-.252 1.806 1.806 0 0 0-.133-.12c-.053-.041.02.03.2.08.092.025.192.038.291.037a.916.916 0 0 0 .217-.027c.043-.01.057-.019.037-.01-.02.01-.063.03-.134.072l-2.007-3.46c.567-.33 1.508-.782 2.646-.472.956.26 1.638.973 2.08 1.457l-2.957 2.695Z" mask="url(#a)"/><path fill="#FFDD87" stroke="#996E00" stroke-width="2" d="M27.78 1.02v1.56c2.42.09 5.41.867 7.767 1.985l.002.001c4.296 2.048 7.553 5.232 9.652 9.44v.002c1.307 2.622 1.877 4.63 2.133 7.58l.055.626h1.592a29.872 29.872 0 0 0-.42-3.33l-.001-.002c-.628-3.287-2.399-7.071-4.477-9.584-3.847-4.649-8.972-7.453-14.828-8.137a37.932 37.932 0 0 0-1.476-.14ZM40.042 22.214c-.054-.6-.187-1.346-.381-2.121-.258-1.027-.601-2.018-.946-2.698l-.002-.004c-1.27-2.528-3.528-4.811-5.962-6.028h-.002a13.557 13.557 0 0 0-4.97-1.388v1.576c2.836.24 5.312 1.433 7.362 3.53 1.959 1.995 3.064 4.385 3.304 7.133h1.597Z"/></svg>