<svg xmlns="http://www.w3.org/2000/svg" width="60" height="60" fill="none"><g fill="#FFDD87" stroke="#996E00" filter="url(#a)"><path d="M28.238 1.024c-.186.02-.763.088-1.273.137-3.23.352-6.802 1.565-9.69 3.287a25.359 25.359 0 0 0-8.849 8.845c-1.713 2.857-2.848 6.183-3.309 9.686-.156 1.203-.156 4.863 0 6.066.803 6.095 3.485 11.252 8.027 15.468 2.506 2.339 5.629 4.158 9.025 5.274C24.851 50.677 26.975 51 30 51c2.232 0 3.22-.088 5.188-.49 6.744-1.379 12.764-5.703 16.386-11.779 1.713-2.857 2.849-6.183 3.309-9.686.156-1.203.156-4.863 0-6.066-.46-3.503-1.596-6.83-3.309-9.686a25.358 25.358 0 0 0-8.849-8.845c-2.829-1.692-6.206-2.847-9.593-3.287-.861-.117-4.287-.205-4.894-.137Zm5.188 1.653c.568.089 1.625.304 2.35.48 8.3 2.064 14.986 8.727 17.08 17.034.539 2.142.676 3.346.676 5.821 0 2.475-.137 3.679-.676 5.821-1.664 6.614-6.284 12.289-12.431 15.312-1.694.832-2.937 1.292-4.6 1.712-2.145.538-3.349.675-5.825.675-2.477 0-3.68-.137-5.824-.675-8.281-2.084-14.947-8.746-17.032-17.024-.539-2.142-.676-3.346-.676-5.821 0-2.475.137-3.679.676-5.821 1.664-6.614 6.284-12.289 12.431-15.312 2.78-1.36 5.286-2.055 8.614-2.387.832-.088 4.258.039 5.237.185Z"/><path d="M28.19 5.77c-3.965.371-7.656 1.839-10.749 4.275-3.856 3.043-6.5 7.377-7.41 12.161-.851 4.432-.195 8.982 1.88 13.052.763 1.507 2.163 3.561 2.75 4.04.245.206.754.108.98-.195.263-.352.185-.597-.49-1.458-2.76-3.57-4.229-8.14-4.004-12.396.235-4.178 1.566-7.778 4.072-10.938 6.431-8.13 18.148-9.52 26.42-3.14.861.674 1.106.752 1.458.488.303-.225.401-.734.196-.978-.225-.284-1.4-1.174-2.242-1.722-3.808-2.456-8.428-3.6-12.862-3.19Z"/><path d="m29.54 9.027-.274.235-.03 1.604c-.039 1.84.06 2.31.5 2.466a.844.844 0 0 0 .538 0c.43-.157.529-.626.49-2.466l-.03-1.604-.274-.235c-.147-.127-.362-.235-.46-.235-.098 0-.313.108-.46.235ZM21.318 11.19c-.363.254-.343.616.088 1.399.548.998.744 1.203 1.145 1.213.401.01.695-.284.695-.704 0-.265-.871-1.83-1.106-1.977-.186-.117-.597-.088-.822.069ZM37.86 11.121c-.235.147-1.106 1.712-1.106 1.977 0 .42.294.714.695.704.401-.01.597-.215 1.145-1.213.431-.783.45-1.145.088-1.4-.225-.156-.636-.185-.822-.068ZM44.4 12.863c-.334.42-.285.587.498 1.585 2.682 3.434 4.18 8.12 3.955 12.328-.235 4.177-1.566 7.778-4.072 10.938-6.431 8.13-18.148 9.52-26.42 3.14-.86-.675-1.106-.753-1.458-.489-.303.225-.401.734-.196.979.235.283 1.41 1.184 2.242 1.712 1.664 1.076 3.113 1.751 4.914 2.328a20.3 20.3 0 0 0 18.696-3.404c3.857-3.043 6.5-7.377 7.41-12.162.851-4.432.195-8.981-1.88-13.051-.753-1.488-1.722-2.926-2.564-3.845-.382-.411-.832-.431-1.126-.06Z"/><path d="M20.358 15.935a.708.708 0 0 0-.47.695c0 .264.5.802 4.033 4.334 3.68 3.679 4.033 4.06 3.935 4.246-.058.108-.107.48-.107.822 0 1.301.94 2.23 2.251 2.23.558 0 .715-.048 1.175-.322.42-.255.587-.43.822-.9.166-.323.303-.597.313-.617 0-.01 1.85-.303 4.101-.655 3.24-.5 4.131-.666 4.268-.803.49-.498.196-1.203-.509-1.203-.215 0-2.134.264-4.267.597-3.671.567-3.886.587-3.975.42-.156-.273-.567-.625-.969-.831-.41-.206-1.429-.254-1.762-.078-.186.098-.567-.255-4.228-3.904-2.213-2.211-4.111-4.031-4.22-4.06a.673.673 0 0 0-.39.029Zm10.2 9.51c.5.47.147 1.35-.548 1.35-.46 0-.793-.313-.793-.773a.79.79 0 0 1 1.341-.577ZM15.542 17.08c-.401.078-.665.723-.44 1.076.147.235 1.713 1.105 1.977 1.105.676 0 .96-.802.45-1.232-.235-.206-1.664-1.028-1.732-1.008-.02.01-.137.039-.255.058ZM43.361 17.461c-.978.548-1.135.704-1.145 1.115-.01.392.294.685.705.685.264 0 1.83-.87 1.977-1.105.127-.206.088-.627-.088-.832-.323-.372-.607-.342-1.449.137ZM13.389 25.298c-.264.049-.617.47-.617.724 0 .098.108.303.235.45l.235.274 1.605.03c1.84.038 2.31-.06 2.467-.5.147-.41-.03-.782-.43-.92-.324-.107-2.996-.156-3.495-.058ZM43.117 25.357c-.402.137-.578.508-.431.92.157.44.627.537 2.467.498l1.605-.029.235-.274c.294-.342.294-.577 0-.92l-.235-.274-1.654-.02c-1.106-.019-1.752.01-1.987.099ZM16.002 33.252c-.46.274-.861.548-.9.616-.118.186-.088.597.068.822.255.362.617.343 1.4-.088.998-.548 1.204-.743 1.214-1.144.01-.402-.284-.695-.705-.695-.147 0-.626.225-1.077.49ZM42.431 32.939c-.166.127-.225.284-.215.519.01.4.215.596 1.214 1.144.783.43 1.145.45 1.4.088.156-.225.186-.636.068-.822-.147-.234-1.713-1.105-1.977-1.105a.875.875 0 0 0-.49.176ZM22.384 38.222c-.41.059-1.409 1.732-1.32 2.201.097.48.753.734 1.125.431.254-.196 1.057-1.663 1.057-1.928 0-.489-.362-.782-.861-.704ZM37.165 38.252c-.244.088-.41.381-.41.694 0 .255.812 1.722 1.056 1.908.206.167.617.157.871-.02.353-.244.343-.616-.039-1.32-.656-1.204-.959-1.458-1.478-1.262ZM29.52 38.819c-.264.264-.323.822-.283 2.505.029 1.438.029 1.438.303 1.673.343.293.578.293.92 0 .274-.235.274-.235.304-1.673.058-2.192-.088-2.69-.764-2.69a.804.804 0 0 0-.48.185Z"/></g><defs><filter id="a" width="59" height="59" x=".5" y=".5" color-interpolation-filters="sRGB" filterUnits="userSpaceOnUse"><feFlood flood-opacity="0" result="BackgroundImageFix"/><feColorMatrix in="SourceAlpha" result="hardAlpha" values="0 0 0 0 0 0 0 0 0 0 0 0 0 0 0 0 0 0 127 0"/><feOffset dy="4"/><feGaussianBlur stdDeviation="2"/><feComposite in2="hardAlpha" operator="out"/><feColorMatrix values="0 0 0 0 0 0 0 0 0 0 0 0 0 0 0 0 0 0 0.25 0"/><feBlend in2="BackgroundImageFix" result="effect1_dropShadow_26_57"/><feBlend in="SourceGraphic" in2="effect1_dropShadow_26_57" result="shape"/></filter></defs></svg>