<svg width="58" height="58" viewBox="0 0 58 58" fill="none" xmlns="http://www.w3.org/2000/svg">
<g filter="url(#filter0_d_26_41)">
<path d="M27.1941 1.58307L27.1947 1.58302C32.362 1.10954 37.341 2.67916 40.9596 5.86089C42.8955 7.56308 44.2048 9.45144 45.0485 11.7211C46.3472 15.2169 46.0278 19.1013 44.1438 22.4762C44.145 22.4741 44.1456 22.473 44.1456 22.473C44.1455 22.4729 44.1332 22.4936 44.1001 22.5449C44.0641 22.6005 44.0148 22.675 43.9512 22.7693C43.8242 22.9575 43.6507 23.2092 43.4343 23.5192C43.0022 24.1384 42.4098 24.9746 41.6988 25.9694C40.2773 27.9582 38.3895 30.57 36.3787 33.3247L36.3785 33.3249C33.6816 37.0213 31.8324 39.5345 30.6255 41.1414C30.0209 41.9465 29.5853 42.5136 29.2884 42.8849C29.1912 43.0065 29.1135 43.1013 29.0528 43.1731C29.0376 43.1745 29.0213 43.1753 29.0041 43.1753C28.9853 43.1753 28.9676 43.1743 28.9511 43.1727C28.8914 43.1023 28.8143 43.0087 28.7172 42.8874C28.4219 42.5186 27.9884 41.9534 27.3837 41.1464C26.1769 39.5359 24.3223 37.0083 21.5972 33.2675L27.1941 1.58307ZM27.1941 1.58307C21.4228 2.10958 16.4302 5.22518 13.8128 9.78116C13.4053 10.4989 12.7054 12.284 12.5166 13.1221L12.5166 13.1221M27.1941 1.58307L12.5166 13.1221M12.5166 13.1221L12.5147 13.1304M12.5166 13.1221L12.5147 13.1304M12.5147 13.1304C11.777 16.3211 12.2523 19.5785 13.8645 22.4665L13.8651 22.4677M12.5147 13.1304L13.8651 22.4677M13.8651 22.4677C13.8639 22.4654 13.8656 22.468 13.871 22.4765M13.8651 22.4677L13.871 22.4765M13.871 22.4765C13.8875 22.5022 13.9382 22.581 14.0437 22.7365M13.871 22.4765L14.0437 22.7365M14.0437 22.7365C14.1676 22.9192 14.3382 23.1659 14.552 23.4714M14.0437 22.7365L14.552 23.4714M14.552 23.4714C14.9789 24.0815 15.5675 24.9111 16.276 25.9019M14.552 23.4714L16.276 25.9019M16.276 25.9019C17.6923 27.8827 19.5803 30.4974 21.597 33.2672L16.276 25.9019ZM31.4136 7.5498L31.4188 7.55108L37.1343 14.455L38.5736 14.0326C38.5739 14.0336 38.5742 14.0346 38.5745 14.0356C38.7265 14.5562 38.79 15.4581 38.79 16.1175C38.79 17.5115 38.6196 18.3747 38.0524 19.5544L38.0513 19.5569C36.7928 22.1625 34.1909 24.0661 31.2222 24.7299L31.2212 24.7301C30.6513 24.8572 29.7583 24.8981 29.0041 24.8981C28.2499 24.8981 27.357 24.8572 26.787 24.7301L26.7861 24.7299C23.8173 24.0661 21.2154 22.1625 19.957 19.5569L19.9558 19.5544C19.3887 18.3747 19.2183 17.5116 19.2183 16.1175C19.2183 14.7234 19.3887 13.8602 19.9558 12.6805L19.9559 12.6804C21.2065 10.0791 23.979 8.02354 26.8501 7.51167L26.8536 7.51105C26.9571 7.49286 27.0711 7.47259 27.1823 7.45282C27.3872 7.41638 27.5826 7.38164 27.6847 7.36475C27.9636 7.31321 28.308 7.31065 28.5323 7.31129C28.8316 7.31215 29.1814 7.32398 29.5271 7.34266C30.1626 7.37699 30.9749 7.44392 31.4136 7.5498Z" fill="#FFDD87" stroke="#996E00" stroke-width="3"/>
<path d="M15.2637 35.3908C15.0946 35.4307 14.9108 35.4745 14.721 35.5201C10.7654 36.4903 8.10572 37.7651 6.68638 39.0724C5.99253 39.7115 5.66412 40.2939 5.5506 40.7876C5.44271 41.2568 5.49447 41.7898 5.83676 42.4311L5.84059 42.4383L5.84434 42.4455C5.91817 42.5875 6.13813 42.8857 6.5199 43.2678C6.88104 43.6292 7.30828 43.9871 7.71197 44.2617C10.6143 46.216 16.3914 47.7687 23.9532 48.3802L23.9544 48.3803C24.4852 48.4237 25.3287 48.4552 26.3149 48.475C25.2548 48.0895 24.2738 47.4559 23.509 46.5497L23.509 46.5497C23.3209 46.3269 22.7126 45.5101 21.945 44.4687C21.1181 43.3467 20.0344 41.8647 18.8928 40.293L18.8921 40.292C17.761 38.732 16.718 37.3163 15.9503 36.2946C15.6834 35.9395 15.4523 35.6353 15.2637 35.3908ZM34.446 46.5921C33.6696 47.4753 32.6902 48.0962 31.6368 48.4761C32.6472 48.4564 33.5128 48.4245 34.0536 48.3803L34.0549 48.3802C41.6167 47.7687 47.3938 46.216 50.2961 44.2617C50.6998 43.9872 51.127 43.6292 51.4882 43.2678C51.87 42.8857 52.0899 42.5875 52.1637 42.4455L52.1672 42.4389L52.1707 42.4323C52.5111 41.7932 52.5593 41.2567 52.4428 40.778C52.3195 40.2717 51.9724 39.6745 51.2534 39.0237C49.7865 37.6958 47.0654 36.4142 43.0753 35.4737C42.9218 35.4379 42.789 35.4075 42.6735 35.382C42.4681 35.66 42.2036 36.0206 41.8918 36.4472C41.1387 37.4777 40.1168 38.884 39.0052 40.4186C36.8072 43.4528 34.7443 46.2426 34.4606 46.5752L34.4534 46.5837L34.446 46.5921Z" fill="#FFDD87" stroke="#996E00" stroke-width="3"/>
</g>
<defs>
<filter id="filter0_d_26_41" x="0" y="0" width="58" height="58" filterUnits="userSpaceOnUse" color-interpolation-filters="sRGB">
<feFlood flood-opacity="0" result="BackgroundImageFix"/>
<feColorMatrix in="SourceAlpha" type="matrix" values="0 0 0 0 0 0 0 0 0 0 0 0 0 0 0 0 0 0 127 0" result="hardAlpha"/>
<feOffset dy="4"/>
<feGaussianBlur stdDeviation="2"/>
<feComposite in2="hardAlpha" operator="out"/>
<feColorMatrix type="matrix" values="0 0 0 0 0 0 0 0 0 0 0 0 0 0 0 0 0 0 0.25 0"/>
<feBlend mode="normal" in2="BackgroundImageFix" result="effect1_dropShadow_26_41"/>
<feBlend mode="normal" in="SourceGraphic" in2="effect1_dropShadow_26_41" result="shape"/>
</filter>
</defs>
</svg>
