<svg width="71" height="60" viewBox="0 0 71 60" fill="none" xmlns="http://www.w3.org/2000/svg">
<g filter="url(#filter0_d_26_41)">
<path d="M33.1655 1.58871L33.166 1.58867C39.8576 1.08259 46.2892 2.76534 50.9362 6.13787C53.4183 7.93928 55.07 9.91977 56.125 12.2625C57.7332 15.8353 57.3519 19.8019 54.9891 23.2954C54.9904 23.2934 54.9911 23.2924 54.9911 23.2924C54.991 23.2923 54.9751 23.3144 54.9325 23.3688C54.8868 23.4272 54.8243 23.505 54.7439 23.6033C54.5835 23.7996 54.3646 24.0618 54.0918 24.3844C53.547 25.0287 52.8002 25.8987 51.9042 26.9335C50.1128 29.0022 47.734 31.7188 45.2002 34.5838L45.2 34.5841C41.8018 38.4283 39.4713 41.0426 37.95 42.7145C37.1881 43.5519 36.638 44.1431 36.2622 44.531C36.0893 44.7095 35.9635 44.8343 35.8766 44.9163C35.7875 44.941 35.6604 44.9624 35.5053 44.9624C35.3464 44.9624 35.217 44.94 35.1276 44.9145C35.0424 44.8348 34.9178 44.7117 34.745 44.5336C34.3712 44.1482 33.8237 43.559 33.0617 42.7196C31.5404 41.0439 29.2031 38.4146 25.7696 34.5242L33.1655 1.58871ZM33.1655 1.58871C25.6699 2.15313 19.27 5.49153 15.9563 10.2526C15.7231 10.5919 15.3756 11.2251 15.0407 11.9346C14.7035 12.6492 14.4396 13.3131 14.3343 13.6992L14.3343 13.6992M33.1655 1.58871L14.3343 13.6992M14.3343 13.6992L14.3316 13.7089M14.3343 13.6992L14.3316 13.7089M14.3316 13.7089C13.4211 16.9592 13.996 20.2904 16.0215 23.2853L16.0224 23.2865M14.3316 13.7089L16.0224 23.2865M16.0224 23.2865C16.0211 23.2846 16.0231 23.2872 16.0292 23.295M16.0224 23.2865L16.0292 23.295M16.0292 23.295C16.0493 23.3208 16.1139 23.4039 16.2499 23.5694M16.0292 23.295L16.2499 23.5694M16.2499 23.5694C16.4064 23.7599 16.6217 24.0168 16.8912 24.3347M16.2499 23.5694L16.8912 24.3347M16.8912 24.3347C17.4295 24.9696 18.1713 25.8327 19.0641 26.8633M16.8912 24.3347L19.0641 26.8633M19.0641 26.8633C20.8489 28.9237 23.2281 31.6432 25.7693 34.5239L19.0641 26.8633ZM38.3909 7.89726L38.3953 7.89816C42.4886 8.72642 45.9793 11.1394 47.1644 14.5359C47.2802 14.8639 47.343 15.2723 47.3799 15.5998C47.4211 15.964 47.4455 16.3737 47.4455 16.7623C47.4455 17.4507 47.4001 18.0677 47.2427 18.6826C47.0834 19.3051 46.8292 19.8486 46.4989 20.4157L46.4974 20.4184C44.9144 23.1238 41.7087 25.0169 38.1599 25.6719L38.159 25.6721C37.515 25.7906 36.4523 25.8341 35.5053 25.8341C34.5583 25.8341 33.4956 25.7906 32.8515 25.6721L32.8507 25.6719C29.3018 25.0169 26.0962 23.1238 24.5132 20.4184L24.5116 20.4157C24.1813 19.8486 23.9271 19.3051 23.7678 18.6826C23.6105 18.0677 23.5651 17.4507 23.5651 16.7623C23.5651 16.0738 23.6105 15.4568 23.7678 14.8419C23.9271 14.2194 24.1813 13.6759 24.5116 13.1088L24.5117 13.1087C26.0894 10.4 29.5082 8.3638 32.9046 7.864L32.9075 7.86357C33.0437 7.84381 33.1912 7.82215 33.3333 7.8013C33.5923 7.76329 33.8331 7.72795 33.9537 7.71158C34.2337 7.66784 34.6115 7.66314 34.9089 7.66384C35.2719 7.6647 35.7012 7.6766 36.1291 7.69568C36.9381 7.73175 37.9033 7.80012 38.3909 7.89726Z" fill="#FFDD87" stroke="#996E00" stroke-width="3"/>
<path d="M5.90654 44.0484L5.9114 44.0559L5.91617 44.0635C6.01172 44.2152 6.29873 44.5361 6.79341 44.9447C7.25992 45.33 7.81584 45.7152 8.34929 46.0146C12.1199 48.1106 19.5265 49.7354 29.0886 50.3737L29.0896 50.3737C29.8719 50.4265 31.1779 50.4627 32.6796 50.4824C31.2924 50.1196 29.9877 49.4665 28.9769 48.4779C28.7488 48.2553 27.9866 47.4109 27.0133 46.321C25.9716 45.1544 24.6063 43.6133 23.1681 41.9789L23.1672 41.9779C21.7418 40.3552 20.4271 38.8823 19.4591 37.819C19.034 37.3521 18.6803 36.9691 18.4152 36.6888C18.1124 36.7468 17.744 36.8191 17.3575 36.8956C12.3224 37.9148 8.87415 39.2664 7.01221 40.6819C6.09121 41.3821 5.68858 41.9991 5.5568 42.4721C5.44076 42.8886 5.47899 43.3872 5.90654 44.0484ZM41.9692 48.5194C40.942 49.4838 39.638 50.1251 38.2574 50.4833C39.7898 50.4639 41.1257 50.4273 41.9206 50.3737L41.9216 50.3737C51.4838 49.7354 58.8904 48.1105 62.661 46.0145C63.1944 45.7151 63.7503 45.33 64.2168 44.9447C64.7115 44.5361 64.9985 44.2152 65.094 44.0635L65.0984 44.0565L65.1028 44.0497C65.527 43.3922 65.5615 42.8917 65.4355 42.4644C65.2914 41.9757 64.8633 41.3421 63.9099 40.6297C61.9872 39.1931 58.4619 37.8349 53.3822 36.8467C52.9863 36.7704 52.7008 36.7184 52.4934 36.6841C52.4884 36.6897 52.4835 36.6952 52.4784 36.7008C52.2038 37.0064 51.8156 37.4427 51.3407 37.979C50.3917 39.0509 49.104 40.5136 47.7033 42.1096C44.9308 45.2687 42.3368 48.1639 41.9855 48.5038L41.9774 48.5116L41.9692 48.5194Z" fill="#FFDD87" stroke="#996E00" stroke-width="3"/>
</g>
<defs>
<filter id="filter0_d_26_41" x="0" y="0" width="71" height="60" filterUnits="userSpaceOnUse" color-interpolation-filters="sRGB">
<feFlood flood-opacity="0" result="BackgroundImageFix"/>
<feColorMatrix in="SourceAlpha" type="matrix" values="0 0 0 0 0 0 0 0 0 0 0 0 0 0 0 0 0 0 127 0" result="hardAlpha"/>
<feOffset dy="4"/>
<feGaussianBlur stdDeviation="2"/>
<feComposite in2="hardAlpha" operator="out"/>
<feColorMatrix type="matrix" values="0 0 0 0 0 0 0 0 0 0 0 0 0 0 0 0 0 0 0.25 0"/>
<feBlend mode="normal" in2="BackgroundImageFix" result="effect1_dropShadow_26_41"/>
<feBlend mode="normal" in="SourceGraphic" in2="effect1_dropShadow_26_41" result="shape"/>
</filter>
</defs>
</svg>
